<svg width="34" height="32" viewBox="0 0 34 32" fill="none" xmlns="http://www.w3.org/2000/svg">
<path d="M17 2C8.78156 2 2.125 8.265 2.125 16C2.125 22.195 6.38297 27.4275 12.2958 29.2825C13.0395 29.405 13.3184 28.985 13.3184 28.6175C13.3184 28.285 13.2998 27.1825 13.2998 26.01C9.5625 26.6575 8.59562 25.1525 8.29812 24.365C8.13078 23.9625 7.40563 22.72 6.77344 22.3875C6.25281 22.125 5.50906 21.4775 6.75484 21.46C7.92625 21.4425 8.76297 22.475 9.04188 22.895C10.3806 25.0125 12.5189 24.4175 13.3742 24.05C13.5044 23.14 13.8948 22.5275 14.3225 22.1775C11.0128 21.8275 7.55438 20.62 7.55438 15.265C7.55438 13.7425 8.13078 12.4825 9.07906 11.5025C8.93031 11.1525 8.40969 9.7175 9.22781 7.7925C9.22781 7.7925 10.4736 7.425 13.3184 9.2275C14.5084 8.9125 15.7728 8.755 17.0372 8.755C18.3016 8.755 19.5659 8.9125 20.7559 9.2275C23.6008 7.4075 24.8466 7.7925 24.8466 7.7925C25.6647 9.7175 25.1441 11.1525 24.9953 11.5025C25.9436 12.4825 26.52 13.725 26.52 15.265C26.52 20.6375 23.043 21.8275 19.7333 22.1775C20.2725 22.615 20.7373 23.455 20.7373 24.7675C20.7373 26.64 20.7188 28.145 20.7188 28.6175C20.7188 28.985 20.9977 29.4225 21.7414 29.2825C24.6944 28.3443 27.2604 26.5581 29.0782 24.1753C30.896 21.7926 31.8742 18.9334 31.875 16C31.875 8.265 25.2184 2 17 2Z" fill="#98A2B3"/>
</svg>
